# xmcd CD database file
#
# Track frame offsets:
#	150
#	30862
#	44356
#	79161
#	89774
#	109165
#	121405
#	138187
#	153724
#	170830
#	186003
#	220327
#	232802
#	246227
#	264753
#	278172
#
# Disc length: 3959 seconds
#
# Revision: 0
# Processed by: cddbd v1.5.2PL0 Copyright (c) Steve Scherf et al.
# Submitted via: CDex 1.51
#
DISCID=da0f7510
DTITLE=Various Artist - Jazz - The Essential Collection disc 17
DYEAR=1900
DGENRE=Jazz
TTITLE0=Art Blakey Quintet - Quicksilver
TTITLE1=Bennie Green (feat. Strings) - Embraceable You
TTITLE2=Milt Jackson Quartet - Stonewall
TTITLE3=Kitty White - Frantic Feeling
TTITLE4=June Christy - Something Cool
TTITLE5=Art Tatum - Aunt Hagar's Blues
TTITLE6=Billy Taylor Trio - Radioactivity
TTITLE7=Humphrey Lyttelton and His Band - I Double Dare You
TTITLE8=Frank Foster Quintet - Blues For Benny
TTITLE9=Erroll Garner - My Heart Stood Still
TTITLE10=Art Farmer and Donald Byrd - The Third
TTITLE11=Chris Connor - Blue Silhouette
TTITLE12=Cleo Laine - Mad About The Boy
TTITLE13=Clifford Brown Sextet - Hymn Of The Orient
TTITLE14=Cal Tjader - Guarachi Guaro
TTITLE15=Al Caiola - Love Letters
EXTD=
EXTT0=
EXTT1=
EXTT2=
EXTT3=
EXTT4=
EXTT5=
EXTT6=
EXTT7=
EXTT8=
EXTT9=
EXTT10=
EXTT11=
EXTT12=
EXTT13=
EXTT14=
EXTT15=
PLAYORDER=
